<?xml version="1.0" standalone="no"?>
<!DOCTYPE svg PUBLIC "-//W3C//DTD SVG 20010904//EN"
 "http://www.w3.org/TR/2001/REC-SVG-20010904/DTD/svg10.dtd">
<svg version="1.0" xmlns="http://www.w3.org/2000/svg"
 width="225.000000pt" height="225.000000pt" viewBox="0 0 225.000000 225.000000"
 preserveAspectRatio="xMidYMid meet">
<metadata>
Created by potrace 1.14, written by Peter Selinger 2001-2017
</metadata>
<g transform="translate(0.000000,225.000000) scale(0.100000,-0.100000)"
fill="#000000" stroke="none">
<path d="M320 1540 c0 -5 9 -10 20 -10 39 0 86 -27 149 -86 67 -62 231 -255
231 -272 0 -5 -67 -100 -150 -210 -154 -208 -173 -226 -253 -242 -34 -6 -22
-8 61 -9 67 -1 114 4 135 13 36 15 96 81 172 191 27 39 68 96 92 127 24 31 43
58 43 61 0 2 -50 65 -111 138 -118 143 -149 192 -149 235 0 30 24 53 58 54 12
0 22 5 22 10 0 6 -60 10 -160 10 -100 0 -160 -4 -160 -10z"/>
<path d="M830 1541 c0 -6 7 -11 15 -11 8 0 21 -13 30 -30 13 -24 15 -84 15
-375 0 -366 -4 -396 -47 -408 -10 -3 83 -5 207 -4 218 2 226 3 274 27 73 37
90 66 95 160 2 66 -1 87 -19 125 -26 54 -86 93 -157 103 l-48 7 47 18 c168 65
170 327 3 377 -57 16 -415 26 -415 11z m341 -34 c44 -29 62 -67 67 -141 6 -84
-12 -157 -49 -192 -26 -24 -39 -29 -99 -32 l-69 -4 -3 196 -3 196 61 0 c47 0
69 -5 95 -23z m39 -405 c22 -11 44 -36 58 -63 20 -38 23 -55 20 -129 -3 -55
-11 -97 -22 -118 -25 -48 -83 -72 -173 -72 l-72 0 -3 200 -3 200 80 0 c58 0
90 -5 115 -18z"/>
<path d="M1610 1540 c0 -5 9 -10 21 -10 59 0 76 -48 40 -118 -11 -20 -69 -97
-130 -171 -61 -73 -111 -136 -111 -138 0 -3 19 -30 43 -61 24 -31 65 -88 92
-127 76 -110 136 -176 172 -191 21 -9 68 -14 135 -13 83 1 95 3 61 9 -80 16
-99 34 -249 237 -80 107 -148 201 -151 209 -6 17 142 198 224 275 63 58 116
89 152 89 12 0 21 5 21 10 0 6 -60 10 -160 10 -100 0 -160 -4 -160 -10z"/>
</g>
</svg>
